<svg id="Layer_1" data-name="Layer 1" xmlns="http://www.w3.org/2000/svg" viewBox="0 0 121.013 86.048"><title>palette</title><path d="M104.975,37.056c-13.956-9.639-31.09-15.592-48.087-15.813-3.862-.05-3.864,5.95,0,6C71.321,27.431,85.5,32.136,97.8,39.576c9.713,5.876,22.065,18.134,21.018,30.6-6.816-1.735-13.976-2.932-20.73-.394-5.612,2.108-10.3,6.408-11.431,12.458a3.071,3.071,0,0,0,1.379,3.388c4.722,2.135,10.706,6.168,4.087,10.552A30.676,30.676,0,0,1,80.9,100.333c-8.355,1.584-17.286.863-25.641-.313-14.452-2.035-35-6.044-42.721-20.143-4.2-7.672-3.3-17.332.777-24.866,3.5-6.478,10.107-10.49,16.83-13.026,13.8-5.2,30.611-5.715,44.455-.7,3.636,1.319,5.2-4.477,1.595-5.785C51.277,26.47,8.037,32.81,4.07,64.752c-2,16.1,8.479,27.875,22.505,33.9,15.577,6.691,35.033,10.06,51.927,8.07,7.174-.845,17.472-3.251,21.605-9.948s-1.372-12.2-6.992-15.3c3.949-10.043,19.162-6.891,27.3-4.668a3.044,3.044,0,0,0,3.69-2.1C127.881,60.287,116.324,44.9,104.975,37.056Z" transform="translate(-3.825 -21.243)"/><path d="M36.158,45.751c-3.4-1.316-3.084,2.934-4.368,4.106-.823.751-2.456.691-3.4,1.572a4.562,4.562,0,0,0-1.5,3.847c.465,3.356,3.4,2.975,5.794,3.567,2.3.567,2.684,3.68,5.893,3.464A5.221,5.221,0,0,0,43.127,57.7c.2-1.4-.543-2.909.369-4.119.679-.9,2.007-1.03,2.237-2.3.4-2.216-3.183-5.2-4.872-6.163C38.63,43.852,37.756,44.14,36.158,45.751Z" transform="translate(-3.825 -21.243)"/><path d="M22.745,66.986c-1.135.415-2.286,0-3.089,1.07-.279.371.091.9.025,1.038a7.024,7.024,0,0,1-1.093,1.372c-2.252,2.325.428,2.836-.22,5.394-.334,1.323-.938,1.62-.386,3.027A8.146,8.146,0,0,0,20.1,81.6c1.89,1.712,5.32,3.4,7.833,2.059,2.233-1.187,1.35-3.816,3.372-5.086,1.674-1.051,3.976-2.288,2.732-4.708-1.011-1.967-4.308-4.8-6.164-5.954A7.065,7.065,0,0,0,22.745,66.986Z" transform="translate(-3.825 -21.243)"/><path d="M42.917,91.744a5.645,5.645,0,0,1-3.044-2.6c-.688-1.823.427-1.517,1.605-2.288,2.692-1.761-.8-3.941,1.251-5.9.925-.881,2.363-.444,3.436-.828,1.369-.49,1.119-1.738,2.327-2.36,1.387-.714,1.605.039,2.26.691.877.872,2.558,1.374,3.1,2.476.683,1.4-.01,1.461,1.66,2.373,1.51.825,1.5.847,1.727,2.6.116.909,1.125,2.622.862,3.422-.342,1.043-1.663.695-2.539,1.157-1.159.61-1.826,1.853-3.059,2.455a7.049,7.049,0,0,1-4.037.629C46.454,93.3,44.936,92.1,42.917,91.744Z" transform="translate(-3.825 -21.243)"/><path d="M72.226,79.938c-1.088-.127-2.889-.109-3.172,1.314-.292,1.466,1.037,1.618-.014,3.213-.618.937-2.32,1.475-2.324,2.8,0,1.035,1.148,1.315.969,2.387-.153.916-1.518,1.5-1.347,2.522.229,1.36,2.286,1.5,3.378,1.726,1.608.332,1.949.916,3.251,1.686a3.712,3.712,0,0,0,3.406.188c.957-.442,1.231-1.473,2.074-1.939s1.772.288,2.338-.676c.333-.567.153-2.432.3-3.181a5.893,5.893,0,0,0-.059-3.844c-.545-1.338-.851-1.622-.7-3.193.132-1.336.407-2.2-.638-3.244a4.778,4.778,0,0,0-4.249-.942C74.479,78.907,73.05,80.035,72.226,79.938Z" transform="translate(-3.825 -21.243)"/><path d="M66.162,47.471c-1.182-.295-2.7,2.376-3.873,2.845-2.024.812-3.8.7-4.328,3.229-.477,2.262-.13,3.435-1.677,5.345-1.831,2.258-.328,3.664.263,6.1.6,2.488.921,3.406,3.688,3.683a5.96,5.96,0,0,0,3.084-.341c1.729-.714,1.972-.831,3.934-.06,1.88.74,5.412,2.329,7.382,1.168,2.073-1.221,1.616-3.92,4.44-4.523,2.5-.534,4.958,1.409,7.363.857,2.061-.474,2.271-2.956,4.283-3.8,3.415-1.43,9.757,2.431,9.813-2.991.023-2.141,1.006-1.941,2.224-3.546,1.569-2.067-.269-3.663-2.113-4.63-2.39-1.254-4.845-2.04-7.517-1.455a10.438,10.438,0,0,1-2.807.614c-1.614-.1-1.524-.809-2.458-1.818-2.092-2.262-3.895-.091-5.958,1.07-1.111.625-2.219,1.1-3.394.362-.8-.5-1-1.553-1.948-1.918-2.268-.871-4.411,1.654-6.7,1.035-.735-.2-1.092-.892-1.656-1.084A9.223,9.223,0,0,0,66.162,47.471Z" transform="translate(-3.825 -21.243)"/></svg>