<?xml version="1.0" encoding="UTF-8" standalone="no"?><!DOCTYPE svg PUBLIC "-//W3C//DTD SVG 1.1//EN" "http://www.w3.org/Graphics/SVG/1.1/DTD/svg11.dtd"><svg width="100%" height="100%" viewBox="0 0 128 128" version="1.1" xmlns="http://www.w3.org/2000/svg" xmlns:xlink="http://www.w3.org/1999/xlink" xml:space="preserve" xmlns:serif="http://www.serif.com/" style="fill-rule:evenodd;clip-rule:evenodd;stroke-linecap:round;stroke-linejoin:round;stroke-miterlimit:1.5;"><rect id="redo" x="0" y="0" width="128" height="128" style="fill:none;"/><g><path d="M18.847,108.441c0,-33.851 9.062,-48.737 36.55,-54.036c6.912,-1.333 34.957,-2.561 42.224,-1.656" style="fill:none;stroke:#000;stroke-width:16px;"/><path d="M79.174,19.559c-1.419,0 2.288,1.711 3.229,2.773c1.604,1.812 3.514,3.352 5.142,5.143c5.553,6.109 10.878,12.492 16.709,18.323c1.425,1.425 4.899,7.164 4.899,7.164c0,0 -6.044,5.677 -6.742,6.504c-4.496,5.331 -8.323,10.409 -12.687,14.769c-2.529,2.526 -3.216,4.377 -5.939,6.696c-1.122,0.955 -7.794,8.277 -6.32,8.277" style="fill:none;stroke:#000;stroke-width:16px;"/></g></svg>