<svg xmlns="http://www.w3.org/2000/svg" viewBox="0 0 512 512" fill="rgba(0,0,0,0.1)"><title>illustrations</title><g id="background"><path d="M65.914,161.475c7.482-1.128,14.989-2.093,22.293-4.129a1.5,1.5,0,0,0-.8-2.893c-7.3,2.036-14.811,3-22.293,4.129-1.9.287-1.094,3.178.8,2.893Z"/><path d="M66.789,158.658l-2.293-15.1c-.288-1.9-3.18-1.094-2.892.8l2.292,15.1c.288,1.9,3.18,1.094,2.893-.8Z"/><path d="M62.856,144a112.268,112.268,0,0,0,22.467-3.4c1.869-.476,1.077-3.37-.8-2.893A108.146,108.146,0,0,1,62.856,141c-1.923.089-1.933,3.089,0,3Z"/><path d="M89.348,154.414c-1.211-5.08-2.584-10.022-2.924-15.26-.125-1.917-3.126-1.931-3,0,.358,5.5,1.758,10.716,3.032,16.057.447,1.877,3.341,1.083,2.892-.8Z"/><path d="M54.268,115.364C42.85,103.952,30.863,90.578,29.2,73.778c-.707-7.141.388-14.661,4.04-20.916C37.915,44.856,46.815,40.293,55.421,37.7,72.515,32.559,94.1,38.986,96.189,59.179c1.817,17.592-5.928,36.518-11.515,52.855-.626,1.831,2.27,2.617,2.893.8,8.005-23.41,25.341-66.482-8.1-78.175-13.7-4.791-31.011-.192-42.06,8.81C27.755,51.327,24.729,64.391,26.519,76.3c2.489,16.562,14.21,29.775,25.628,41.187a1.5,1.5,0,0,0,2.121-2.122Z"/><path d="M52.733,117.821a219.961,219.961,0,0,0,34.235-2.854c1.9-.308,1.094-3.2-.8-2.892a214.873,214.873,0,0,1-33.437,2.746,1.5,1.5,0,0,0,0,3Z"/><path d="M54.054,118.008l12.219,23.074c.9,1.707,3.494.193,2.59-1.514L56.644,116.494c-.9-1.707-3.494-.193-2.59,1.514Z"/><path d="M80.036,139.083a110.629,110.629,0,0,1,5.322-24.659c.618-1.834-2.279-2.621-2.893-.8a114.135,114.135,0,0,0-5.429,25.457c-.188,1.92,2.813,1.907,3,0Z"/><path d="M63.028,113.7c-10.362-7.262-14.036-22.68-16.334-34.424C44.049,65.758,45.075,51.1,53.9,39.941c1.185-1.5-.924-3.635-2.121-2.121C42.632,49.381,41.013,64.094,43.47,78.28c2.272,13.12,6.51,29.928,18.044,38.011C63.1,117.4,64.6,114.8,63.028,113.7Z"/><path d="M72.655,114.762C65.58,88.8,65.879,61.835,66.325,35.149c.032-1.931-2.968-1.932-3,0-.45,26.952-.707,54.191,6.437,80.411a1.5,1.5,0,0,0,2.893-.8Z"/><path d="M77.8,115.42c3.135-5.462,4.323-11.51,5.583-17.617a176.291,176.291,0,0,0,3.28-20.355c1.244-14.357-2.386-26.943-7.612-40.165-.7-1.775-3.6-1-2.893.8,4.852,12.274,8.522,24.077,7.651,37.458a146.968,146.968,0,0,1-2.932,19.579c-1.3,6.436-2.357,13.021-5.667,18.788a1.5,1.5,0,0,0,2.59,1.514Z"/><path d="M270.051,316.263c12.965,15.706,33.822,23.947,53.821,18.289,21.566-6.1,31.715-25.568,36.469-46,.437-1.878-2.455-2.68-2.893-.8-4.51,19.384-13.83,38.064-34.374,43.9-19.031,5.411-38.611-2.629-50.9-17.517-1.23-1.49-3.342.643-2.121,2.121Z"/><path d="M271.278,316.781q43.251-15.561,87.078-29.441c1.833-.581,1.05-3.478-.8-2.893q-43.819,13.878-87.077,29.441c-1.8.649-1.025,3.549.8,2.893Z"/><path d="M296.634,312.366a5.943,5.943,0,0,0-4.721,6.487c.382,3.1,2.74,6.209,6.08,6.032a6.584,6.584,0,0,0,5.97-5.477c.63-3.514-1.827-5.528-4.6-7.187a1.5,1.5,0,0,0-1.514,2.59c1.2.721,3.152,1.791,3.244,3.352a3.7,3.7,0,0,1-2.32,3.512c-3.647,1.371-5.683-5.41-1.345-6.416,1.88-.436,1.084-3.33-.8-2.893Z"/><path d="M319.282,306.387c-3.858-.611-6.107,2.8-5.848,6.366.124,1.718.4,3.865,1.692,5.133a7.069,7.069,0,0,0,4.435,1.588c4.313.38,6.183-2.6,6.361-6.543.074-1.652-.022-3.4-1.309-4.607-1.325-1.24-3.49-1.652-5.147-2.226-1.828-.633-2.614,2.264-.8,2.893,1.276.442,3.746.756,4.236,2.226.545,1.634-.007,4.609-1.7,5.167-1.636.54-3.91-.011-4.43-1.719-.41-1.349-.988-5.812,1.712-5.385,1.889.3,2.7-2.591.8-2.893Z"/><path d="M337.276,300c-3.158,1.412-6.287,4.7-6.069,8.4.213,3.628,4.5,5.175,7.634,5.063,3.453-.122,5.323-3.734,5.832-6.744.67-3.97-2.49-7.013-6.215-7.641-1.888-.319-2.7,2.572-.8,2.893,2.524.426,4.659,2.055,3.927,4.862-.492,1.89-1.416,3.826-3.684,3.573-2.3-.257-4.522-1.265-3.289-4a7.912,7.912,0,0,1,4.175-3.824c1.759-.786.235-3.372-1.514-2.59Z"/><path d="M313.894,298.943c-4.786-8.395-6.179-18.875-9.261-27.988A258.4,258.4,0,0,0,293.8,244.146c-.819-1.747-3.406-.225-2.591,1.514a250.755,250.755,0,0,1,11.688,29.59c2.683,8.343,4.033,17.53,8.41,25.207a1.5,1.5,0,0,0,2.59-1.514Z"/><path d="M290.744,242.265c-1.269.515-2.989-.708-3.909-1.516-2.18-1.915-.692-4.282,1.434-5.56,1.153-.694,2.4-1.189,3.605-.344a5.651,5.651,0,0,1,1.811,3.544,4.392,4.392,0,0,1-2.941,3.876c-1.893.371-1.092,3.263.8,2.893,3.168-.619,5.676-4.764,5-7.851A10.727,10.727,0,0,0,293.333,232c-1.7-1.534-3.467-.944-5.327-.057-3.341,1.592-7.064,5.488-4.644,9.4,1.427,2.3,5.393,4.949,8.179,3.819,1.766-.716.994-3.619-.8-2.893Z"/><path d="M292.507,245.212c20.757,13.422,45.126,18.806,67.584,28.541l.757-2.795a232.894,232.894,0,0,0-53.74,13.489c-1.78.691-1.006,3.593.8,2.893a229.792,229.792,0,0,1,52.942-13.382c1.253-.166,2.312-2.122.757-2.8-22.445-9.729-46.846-15.13-67.583-28.54-1.626-1.052-3.132,1.544-1.515,2.59Z"/><path d="M289.7,243.927c-4.217,20.014-20.485,34.7-25.159,54.58a1.522,1.522,0,0,0,1.845,1.846A153.376,153.376,0,0,0,307.3,287.78c1.748-.816.227-3.4-1.514-2.59a150.68,150.68,0,0,1-40.2,12.27l1.845,1.845c4.669-19.856,20.936-34.537,25.159-54.58.4-1.883-2.5-2.689-2.893-.8Z"/><path d="M305.72,277.546A120.918,120.918,0,0,0,341.982,267c1.751-.807.229-3.393-1.515-2.591a116.388,116.388,0,0,1-34.747,10.134c-1.9.222-1.917,3.225,0,3Z"/><path d="M302.091,269.562c9.321-.826,18.487-2,25.9-8.192,1.484-1.238-.648-3.351-2.121-2.121-6.746,5.629-15.341,6.565-23.783,7.313-1.908.169-1.926,3.171,0,3Z"/><path d="M299.5,261.76a56.781,56.781,0,0,0,13.393-5.4c1.684-.944.174-3.537-1.514-2.59a53.579,53.579,0,0,1-12.676,5.1,1.5,1.5,0,0,0,.8,2.893Z"/><path d="M89.319,358.949l48.018-38.222c7.284-5.8,14.947-13.706,24.147-16.269,8.595-2.394,18.352-.388,26.317,3.262,4.258,1.951,9.761,4.618,9.816,9.988.045,4.325-2.8,8.53-5.287,11.847-6.762,9.009-15.927,16.407-24.931,23.061-11.85,8.756-25.1,15.05-37.6,22.767-1.639,1.012-.134,3.608,1.515,2.59,22.612-13.957,49.1-25.678,64.7-48.425,5.2-7.587,6.884-16.151-1.735-21.721a48.113,48.113,0,0,0-22.022-7.227c-9.4-.735-17.018,2.444-24.43,8.025-20.6,15.513-40.452,32.141-60.631,48.2-1.51,1.2.625,3.312,2.121,2.121Z"/><path d="M55.613,358.035c10.774,5.288,22.763,7.374,33.817,1.678,1.717-.885.2-3.475-1.514-2.591-10.054,5.181-21.041,3.107-30.789-1.678-1.727-.847-3.249,1.739-1.514,2.591Z"/><path d="M54.007,357.823c3.456,8.469,11.842,15.078,18.74,20.71,1.483,1.211,3.618-.9,2.121-2.121C68.483,371.2,60.1,364.868,56.9,357.025c-.72-1.764-3.623-.992-2.893.8Z"/><path d="M163.753,331.42c-22.979,21.036-45.023,48.37-41.26,81.554l2.561-1.06a379.144,379.144,0,0,0-31.961-34.748c-1.4-1.324-3.53.794-2.121,2.121a379.133,379.133,0,0,1,31.96,34.748,1.513,1.513,0,0,0,2.561-1.061c-3.679-32.447,17.936-58.885,40.381-79.433,1.427-1.306-.7-3.423-2.121-2.121Z"/><path d="M67.719,344.5a50.9,50.9,0,0,1,11.328,15.093c.856,1.731,3.444.212,2.59-1.514a53.131,53.131,0,0,0-11.8-15.7c-1.422-1.3-3.549.814-2.122,2.121Z"/><path d="M68.67,344.637c13.4,5.433,27.484,2.107,40.829-1.724a1.5,1.5,0,0,0-.8-2.893c-12.866,3.693-26.31,6.965-39.235,1.724-1.788-.725-2.566,2.176-.8,2.893Z"/><path d="M160.929,320.5c10.39,4.648,18.015-6.252,24.114-12.949,1.3-1.424-.818-3.552-2.121-2.121-4.82,5.291-12.053,16.248-20.479,12.48-1.748-.782-3.275,1.8-1.514,2.59Z"/><path d="M162.309,317.794a26.041,26.041,0,0,1,6.489-13.457c1.3-1.425-.818-3.553-2.122-2.122A28.907,28.907,0,0,0,159.416,317c-.319,1.889,2.572,2.7,2.893.8Z"/><path d="M101.431,388.276c-7.158,3.245-13.6,8.211-19.886,12.858-1.584,1.17-5.478,3.038-6.451,4.779-.569,1.019.542-.366.992.35-.23-.365-.71-.572-.953-.93a25.675,25.675,0,0,0-3.314-3.252c-2.447-2.412-4.892-4.827-7.3-7.278-.542-.552-1.963-2.646-2.7-2.815-1.41-.323.534.951-.337,1.116.317-.06.623-.655.93-.791,2.7-1.193,5.649-4.716,7.687-6.79,2.143-2.183,4.347-4.632,5.156-7.652a1.5,1.5,0,0,0-2.893-.8c-1.054,3.936-5.085,7.149-8.038,9.732-1.664,1.457-4.226,2.877-5.445,4.758a1.519,1.519,0,0,0,0,1.514c1.725,3.36,5.959,6.313,8.6,8.932,1.733,1.717,5.683,7.386,8.43,6.906,1.085-.19,2.528-1.751,3.34-2.355,2.331-1.737,4.658-3.478,7.014-5.181,5.291-3.824,10.71-7.807,16.681-10.514,1.756-.8.233-3.382-1.514-2.59Z"/><path d="M52.044,396.512a74.634,74.634,0,0,1-17.388,4.56,1.515,1.515,0,0,0-.757,2.8,20.572,20.572,0,0,0,4.75,2.561c1.07.383,3.805.28,4.631.775q2.385-.536-.461,1.164L39.852,410.9l-5.936,5.069a1.509,1.509,0,0,0,.662,2.507,29.22,29.22,0,0,0,17.127-2.135l-2.257-1.3L48.391,428.44c-.14,1.774,2.42,1.911,2.947.4.781-2.241,3.589-9.054,6.393-8.251,2,.572,3.755,6.261,4.637,8.027.617,1.235,2.352.775,2.742-.358,1.7-4.945,5.627-10.859,2.312-15.644C63.5,406.95,57.9,402.691,53.738,397.2c-1.151-1.52-3.757-.027-2.59,1.514,3.057,4.035,6.67,7.447,10.1,11.143,2.272,2.446,4.814,4.724,4.183,8.249-.549,3.064-2.208,6.415-3.218,9.352l2.742-.359c-1.335-2.672-3.585-11.386-7.643-10.706-4.284.718-7.682,8.236-8.871,11.647l2.946.4,1.057-13.391c.1-1.258-1.319-1.7-2.257-1.3a25.487,25.487,0,0,1-14.815,1.833l.662,2.507c2.966-2.533,5.978-5.022,8.9-7.6,1.12-.988,2.474-1.746,2.381-3.34-.078-1.331-.808-1.89-1.989-2.417a15.008,15.008,0,0,0-2.863-.483,17.974,17.974,0,0,1-7.057-2.972l-.757,2.8a77.74,77.74,0,0,0,18.186-4.667c1.784-.684,1.009-3.586-.8-2.893Z"/><path d="M129.671,326.06c1.586,6.539,7.276,10.2,12.759,13.341a1.5,1.5,0,0,0,1.514-2.59c-4.789-2.745-9.987-5.805-11.381-11.548-.455-1.876-3.348-1.082-2.892.8Z"/><path d="M113.319,341.049c4.069,4.847,8.329,9.543,14.441,11.714,1.822.647,2.607-2.25.8-2.893-5.555-1.973-9.435-6.557-13.117-10.942-1.242-1.481-3.355.651-2.121,2.121Z"/><path d="M95.55,354.445a25.075,25.075,0,0,0,15.993,11.212c1.883.406,2.687-2.485.8-2.893a22.055,22.055,0,0,1-14.2-9.833c-1.032-1.625-3.63-.122-2.591,1.514Z"/><path d="M67.063,231.256c-2.41-8.672-12.92-9.733-17.226-1.96-5.165,9.324-.279,17.011,8.618,20.8,6.679,2.843,13.843,3.291,20.861,4.8,7.33,1.58,14.292,4.788,21.827,5.387,8.885.706,23.015-4.89,21-16.2-.91-5.1-5.8-8.953-10.682-9.95-5.753-1.175-11.173,1.49-15.373,5.238-1.444,1.289.684,3.4,2.121,2.122,4.116-3.673,9.967-6.206,15.335-3.53,6.333,3.157,7.124,9.976,2.254,14.852-8.777,8.789-22.054,2.815-32.042.081-8.947-2.449-18.856-2.233-27.072-6.991-4.758-2.756-6.863-6.657-5.4-12.166.7-2.659,2.1-5.233,4.708-6.3,3.681-1.511,7.155.9,8.186,4.61a1.5,1.5,0,0,0,2.893-.8Z"/><path d="M106.389,235.115c2.745-8.516,2.664-19.656-6.154-24.672-6.534-3.717-15.352-.533-16.865,7.1-.374,1.886,2.517,2.693,2.892.8,1.514-7.637,10.611-8.016,15.268-3.013,4.827,5.187,3.961,12.8,1.966,18.992-.594,1.841,2.3,2.63,2.893.8Z"/><path d="M85.407,214.317c-9.584-12.255-28.312-3.123-25.546,11.838.35,1.9,3.242,1.093,2.893-.8C60.47,213,75.77,206.829,83.286,216.439c1.188,1.519,3.3-.618,2.121-2.122Z"/><path d="M38.115,237.633l-12.8-3.386a1.5,1.5,0,0,0-.8,2.893l12.8,3.386a1.5,1.5,0,0,0,.8-2.893Z"/><path d="M40.286,227.7l-12.017-5.73c-1.734-.826-3.258,1.759-1.514,2.591l12.017,5.729c1.734.827,3.258-1.759,1.514-2.59Z"/><path d="M51.682,216.278a70.284,70.284,0,0,0-15.095-4.3c-1.888-.317-2.7,2.573-.8,2.893a70.317,70.317,0,0,1,15.1,4.3c1.785.732,2.562-2.169.8-2.893Z"/><path d="M440.219,53.778c-3.323,4.79-6.8,9.461-10.513,13.96-3.377,4.1-6.842,9.011-12.177,10.515a1.5,1.5,0,0,0,.8,2.893c5.421-1.528,8.857-5.743,12.359-9.913,4.3-5.118,8.316-10.452,12.123-15.941,1.1-1.59-1.5-3.091-2.59-1.514Z"/><path d="M440.374,53.976c-2.265-.569-5.293-1.19-6.684-3.287-.826-1.244-.842-4.277,1.162-4.433,1.912-.149,1.928-3.15,0-3-3.42.266-5.223,3.673-4.582,6.878.855,4.279,5.62,5.809,9.306,6.734,1.873.471,2.672-2.422.8-2.892Z"/><path d="M437.479,42.08a6.32,6.32,0,0,1-3.172-3.111c-.493-1.114-1.2-5.313,1.266-4.761,1.881.42,2.684-2.471.8-2.893-3.519-.788-5.666,2.33-5.57,5.567a9.1,9.1,0,0,0,5.164,7.788c1.731.836,3.255-1.75,1.514-2.59Z"/><path d="M439.149,31.58c-1.88-3.055,4.96-4.149,6.111-1.692.819,1.747,3.406.225,2.591-1.514-1.34-2.86-6.2-3.421-8.809-2.278a4.969,4.969,0,0,0-2.483,7c1.01,1.641,3.606.136,2.59-1.514Z"/><path d="M446.8,29.552c1.144-1.073,2.969-3.7,4.613-3.193,1.332.408,4.23,2.195,2.717,3.864-1.294,1.428.822,3.556,2.121,2.122,2.384-2.632.948-6.21-1.821-7.874-1.3-.779-3.289-1.757-4.819-1.269-1.845.589-3.549,2.931-4.932,4.228-1.412,1.324.713,3.442,2.121,2.122Z"/><path d="M455.833,34.062a10.573,10.573,0,0,1,7.757-.817c3.133,1.088,2.617,3.6,2.271,6.32-.242,1.91,2.76,1.893,3,0,.485-3.813.469-7.052-3.465-8.823-3.546-1.6-7.688-.88-11.078.73-1.743.828-.222,3.415,1.515,2.59Z"/><path d="M466.586,41.191a8.592,8.592,0,0,1,4.019.584c.151.077.723.346.748.517-.022-.155-.334.4-.373.472a4.177,4.177,0,0,1-1.282,1.46c-1.559,1.111-.063,3.714,1.514,2.59,1.8-1.284,4.169-4.171,2.466-6.383-1.6-2.073-4.7-2.275-7.092-2.24a1.5,1.5,0,0,0,0,3Z"/><path d="M468.97,34.916a4.971,4.971,0,0,1,4.168-1.2c1.291.221,3.644,1.45,2.609,3.054-1.05,1.627,1.546,3.133,2.59,1.514,1.8-2.789-.27-5.836-2.965-6.993a8.026,8.026,0,0,0-8.523,1.5c-1.446,1.285.682,3.4,2.121,2.121Z"/><path d="M479.3,36.168c1.425-.435,3.186-.736,4.456.28.928.743,1.242,2.187.076,2.862a1.5,1.5,0,0,0,1.514,2.59,4.6,4.6,0,0,0,1.337-6.676c-1.9-2.63-5.315-2.824-8.181-1.949-1.841.563-1.056,3.459.8,2.893Z"/><path d="M485.3,42.311c2.016.792,3.7,5.031,1,6.005-1.8.65-1.025,3.55.8,2.893,5.695-2.053,3.832-9.9-.994-11.791-1.8-.706-2.578,2.194-.8,2.893Z"/><path d="M485.891,51.4c3.793,2.341,4.928,10.005-.766,10.891-1.9.3-1.094,3.188.8,2.893,3.47-.54,5.763-3.937,6.153-7.259a9.394,9.394,0,0,0-4.67-9.115c-1.647-1.017-3.156,1.577-1.514,2.59Z"/><path d="M469.912,63.706c1.309-1.207,2.93-.023,2.8,1.558-.16,1.924,2.841,1.914,3,0a4.719,4.719,0,0,0-2.614-4.6,4.791,4.791,0,0,0-5.305.921c-1.423,1.311.7,3.429,2.121,2.122Z"/><path d="M475.457,68.718c1.513.4,4.179.589,5.377,1.647,1.707,1.508-.607,3.91-1.664,5.03-1.325,1.4.793,3.529,2.121,2.121,1.953-2.068,3.992-4.8,2.737-7.785-1.218-2.893-5.129-3.211-7.774-3.906a1.5,1.5,0,0,0-.8,2.893Z"/><path d="M480.353,78.516a3.533,3.533,0,0,1,2.057,3.747,2.533,2.533,0,0,1-3.27,1.731c-1.835-.615-2.622,2.281-.8,2.893a5.553,5.553,0,0,0,6.837-3.434c1.013-2.951-.686-6.111-3.312-7.528-1.7-.917-3.215,1.672-1.514,2.591Z"/><path d="M456.844,71.314c-1.447,2.03-2.475,5.008-.054,6.8,1.885,1.391,4.914,2.1,7.03.934,1.69-.935.178-3.527-1.514-2.591-.967.535-2.493-.069-3.394-.552-1.333-.715-.076-2.231.522-3.071,1.123-1.576-1.478-3.075-2.59-1.515Z"/><path d="M462.089,78.609a4.884,4.884,0,0,0,2.565,4.855,5,5,0,0,0,5.518-.785c1.484-1.239-.648-3.352-2.121-2.121-1.524,1.272-3.166-.3-2.962-1.949a1.51,1.51,0,0,0-1.5-1.5,1.535,1.535,0,0,0-1.5,1.5Z"/><path d="M467.466,83.216c.643,1.7,1.425,3.48,3.155,4.315,1.97.952,4.541.22,6.47-.49,1.8-.662,1.02-3.562-.8-2.893-1.166.43-2.8,1.082-4.06.772-1.088-.268-1.516-1.554-1.874-2.5-.676-1.789-3.577-1.014-2.893.8Z"/><path d="M480.492,69.881c2.679-1.091,5.355-1.741,4.936-5.183-.3-2.429-.993-4.734-3.124-6.143-1.615-1.067-3.119,1.529-1.514,2.591a4.338,4.338,0,0,1,1.549,3.045c.1.527.363,1.3-.087,1.749a9.387,9.387,0,0,1-2.558,1.048c-1.764.719-.992,3.622.8,2.893Z"/><path d="M461.787,80.715c-13.3,2.923-22.414,10.592-30.77,21.07-1.192,1.5.917,3.631,2.121,2.122,8.007-10.04,16.655-17.487,29.446-20.3,1.885-.415,1.088-3.307-.8-2.893Z"/><path d="M441.427,55.557c1.657-.292,2.573-1.741,3.311-3.124a22.667,22.667,0,0,0,1.968-5.188c.466-1.873-2.426-2.673-2.893-.8a19.434,19.434,0,0,1-1.2,3.545c-.407.874-.954,2.491-1.98,2.671-1.9.335-1.093,3.226.8,2.893Z"/><path d="M445.738,61.139c-6.189,11.7-13.4,20.364-25.986,25.291-1.778.695-1,3.6.8,2.892,13.356-5.226,21.185-14.207,27.779-26.668.9-1.706-1.686-3.224-2.59-1.515Z"/><path d="M415.56,78.6c-3.9,2.254-.321,8.965,3.037,9.9a1.5,1.5,0,0,0,.8-2.892,2.9,2.9,0,0,1-1.715-1.725c-.266-.526-1.233-2.328-.6-2.69A1.5,1.5,0,0,0,415.56,78.6Z"/><path d="M427.459,96.409c3.062-2.974,6-6.075,9.1-9.009,1.254-1.187,8.547-9,10.475-7.961,1.7.917,3.215-1.672,1.514-2.59-3.5-1.886-8.4,3.3-10.695,5.306-4.379,3.833-8.343,8.082-12.512,12.133-1.387,1.347.735,3.467,2.121,2.121Z"/><path d="M424.324,95.269c-1.065,2.3-.068,4.223,1.609,5.905a15.673,15.673,0,0,0,5.85,4.107c1.827.637,2.612-2.26.8-2.892a9.834,9.834,0,0,1-3.412-2.261c-.716-.667-2.8-2.168-2.253-3.344.805-1.741-1.78-3.267-2.591-1.515Z"/><path d="M416.064,86.5l-4.806,3.268c-1.587,1.079-.088,3.679,1.515,2.59l4.8-3.267c1.588-1.08.089-3.68-1.514-2.591Z"/><path d="M411.037,92.292c1.716,5.322,4.416,11.383,10.866,11.6,1.931.065,1.928-2.935,0-3-4.893-.166-6.719-5.509-7.973-9.4-.59-1.83-3.488-1.047-2.893.8Z"/><path d="M423.014,104.048a9.231,9.231,0,0,0,2.908-3.157,1.5,1.5,0,0,0-2.59-1.514,6.078,6.078,0,0,1-1.832,2.081,1.537,1.537,0,0,0-.538,2.052,1.514,1.514,0,0,0,2.052.538Z"/><path d="M455.859,43.226c-2.851,1.047-3.9,4.557-3.295,7.358a4.011,4.011,0,0,0,2.447,3.053c1.757.619,3.459-.24,4.883-1.229,1.575-1.095.077-3.7-1.514-2.591-1.231.856-2.8,1.714-2.958-.408-.074-.981.148-2.891,1.234-3.291,1.8-.66,1.02-3.561-.8-2.892Z"/><path d="M453.461,52.706c-.43,2.432-.754,5.063.825,7.169s4.063,2.1,6.434,1.653c1.895-.356,1.092-3.248-.8-2.893-1.3.243-2.743.44-3.462-.907-.679-1.272-.344-2.881-.106-4.224.335-1.888-2.556-2.7-2.893-.8Z"/><path d="M428.1,215.9c1.49,5.529,3.149,11.118,2.357,16.9a1.523,1.523,0,0,0,2.2,1.694c3-1.648,6.059-3.152,9.2-4.53l-2.258-1.3a175.974,175.974,0,0,0-.733,21.538,1.519,1.519,0,0,0,2.257,1.3,54.4,54.4,0,0,0,10.562-6.926l-2.507-.662,4.313,25.759c.238,1.42,2.679,1.445,2.893,0a226.8,226.8,0,0,1,9.587-39.658,1.515,1.515,0,0,0-1.845-1.845,69.186,69.186,0,0,0-13.966,4.547l2.257,1.3,1.592-19.136c.1-1.254-1.324-1.707-2.258-1.295a61.853,61.853,0,0,0-10.266,5.74l2.2,1.694,5.5-17.945a1.516,1.516,0,0,0-2.2-1.694q-9.318,6.1-18.2,12.824c-1.52,1.15-.027,3.756,1.514,2.59q8.883-6.723,18.195-12.824l-2.2-1.694-5.5,17.946a1.515,1.515,0,0,0,2.2,1.694,61.867,61.867,0,0,1,10.267-5.741l-2.257-1.295-1.592,19.136c-.1,1.251,1.324,1.71,2.257,1.3a65.279,65.279,0,0,1,13.249-4.245l-1.845-1.845a226.8,226.8,0,0,0-9.587,39.658h2.893l-4.313-25.76c-.2-1.219-1.735-1.3-2.507-.662a50.861,50.861,0,0,1-9.955,6.457l2.257,1.3a175.974,175.974,0,0,1,.733-21.538c.121-1.258-1.333-1.7-2.257-1.3-3.137,1.378-6.192,2.883-9.2,4.531l2.2,1.694c.874-6.388-.7-12.361-2.357-18.5a1.5,1.5,0,0,0-2.893.8Z"/><path d="M204.342,442.575c3.474-2.98,10.692-7.147,12.576.274a22.908,22.908,0,0,1-.075,9.916c-1.469,7.022-5.6,12.121-10.984,16.6-6.534,5.431-16.515,14.029-11.433,23.726,4.814,9.186,20.136,10.382,29.155,10.3,10.07-.092,22.4-1.092,29.818-8.706,1.349-1.384-.771-3.507-2.121-2.122-4.39,4.5-10.372,6.033-16.415,6.926a67.636,67.636,0,0,1-22.489-.009c-7.248-1.395-18.093-4.709-15.85-14.2,1.67-7.065,8.366-10.984,13.423-15.462,7.535-6.673,12.078-16.988,9.979-27.132-2.075-10.029-11.918-7.194-17.7-2.229-1.468,1.26.662,3.373,2.121,2.122Z"/><path d="M201.261,440.864a23.962,23.962,0,0,0-5.294,7.334l2.741.358a16.568,16.568,0,0,1,1.014-11.333c.481-1.056-.341-2.709-1.694-2.2a20.523,20.523,0,0,1-11.355,1.075l.662,2.507c5.217-4.869,10.707-11.978,17.775-13.885,7.5-2.025,18.306-1.393,22.809,5.83,3.983,6.391,5.1,15.4,2.392,22.417-2.727,7.065-7.793,13.55-12.116,19.7-2.263,3.22-6.962,7.623-4.941,11.984,1.828,3.945,8.236,4.491,11.876,4.969a32.4,32.4,0,0,0,16.8-2.692c1.714-.748,5.772-4.584,7.7-2.422,1.324,1.489.818,6.485.73,8.286-.095,1.93,2.905,1.925,3,0,.155-3.15.5-10.063-2.763-12.1a4.3,4.3,0,0,0-3.936-.156c-3.148,1.24-5.395,3.6-8.831,4.693a29.8,29.8,0,0,1-15.528.86c-3.331-.666-7.242-.814-5.634-6.119.441-1.457,2.186-3.064,3.044-4.269,4.587-6.437,9.625-13.068,12.819-20.333,4.654-10.585,2.136-28.708-10.241-33.029a31.077,31.077,0,0,0-20.612.322c-6.365,2.608-11.558,9.246-16.461,13.821a1.51,1.51,0,0,0,.662,2.507,23.483,23.483,0,0,0,12.949-1.074l-1.694-2.2a19.88,19.88,0,0,0-1.315,13.645,1.515,1.515,0,0,0,2.741.358,22.193,22.193,0,0,1,4.825-6.727c1.4-1.338-.726-3.457-2.121-2.121Z"/><path d="M218.7,484.739c4.113-3.457,9.169-4.782,14.385-5.5,5-.684,10.226-2.216,14.5,1,4.2,3.164,8.043,4.846,13.368,2.624,4.764-1.988,5.2-4.886,4.2-9.614-2.022-9.542-8.221-16.971-5.789-27.312.441-1.878-2.451-2.679-2.893-.8-1.734,7.375,0,14.484,3.116,21.243,1.187,2.573,4.342,8.722,3.12,11.63-1.2,2.848-6.968,3.272-9.326,2.586-3.05-.888-4.145-4.184-7.143-5.125s-6.508.015-9.537.348c-7.305.8-14.331,1.928-20.119,6.792-1.48,1.243.651,3.356,2.121,2.121Z"/><path d="M256.614,446.3c4.88,8.1,11.406,15.706,14.164,24.9,1.457,4.85,2.2,11.552-1.582,15.6-3.6,3.858-12.926,5.847-18.042,6.516-1.887.247-1.911,3.251,0,3,10.709-1.4,23.787-4.992,23.785-17.834,0-12.86-9.467-23.293-15.734-33.693a1.5,1.5,0,0,0-2.591,1.514Z"/><path d="M258.248,461.263c2.909,1.422,6.778,1.685,9.513-.274,1.557-1.114.06-3.717-1.514-2.59a6.511,6.511,0,0,1-6.485.274c-1.728-.844-3.251,1.742-1.514,2.59Z"/><path d="M223,471.255c3.224-1.736,6.251-2.713,9.7-.962a17.109,17.109,0,0,1,6.653,6.376c1.01,1.642,3.606.137,2.59-1.514a19.464,19.464,0,0,0-9.337-8.186c-3.914-1.458-7.584-.21-11.122,1.7-1.7.916-.187,3.507,1.514,2.59Z"/><path d="M204.95,431.089l1.655-1.372a1.511,1.511,0,0,0,0-2.121,1.533,1.533,0,0,0-2.121,0l-1.655,1.372a1.511,1.511,0,0,0,0,2.121,1.532,1.532,0,0,0,2.121,0Z"/><path d="M186.764,440.085a18.034,18.034,0,0,1,1.131,4.122,1.511,1.511,0,0,0,1.845,1.048,1.538,1.538,0,0,0,1.048-1.845,18.042,18.042,0,0,0-1.131-4.123,1.547,1.547,0,0,0-1.845-1.047,1.51,1.51,0,0,0-1.048,1.845Z"/><path d="M219.253,430.525l2.755-2.2a1.508,1.508,0,0,0,0-2.121,1.536,1.536,0,0,0-2.121,0l-2.755,2.2a1.508,1.508,0,0,0,0,2.121,1.535,1.535,0,0,0,2.121,0Z"/><path d="M224.825,436.528a7.174,7.174,0,0,0,5.184-2.12,1.5,1.5,0,0,0-2.121-2.122,4.111,4.111,0,0,1-3.063,1.242,1.5,1.5,0,0,0,0,3Z"/><path d="M226.949,445.15a6.412,6.412,0,0,0,6.606-1.416c1.411-1.324-.713-3.442-2.121-2.122a3.436,3.436,0,0,1-3.688.646c-1.81-.678-2.592,2.221-.8,2.892Z"/><path d="M224.955,454.392a11.709,11.709,0,0,0,5.374.814c1.91-.158,1.927-3.159,0-3a9.711,9.711,0,0,1-4.576-.706,1.511,1.511,0,0,0-1.845,1.047,1.534,1.534,0,0,0,1.047,1.845Z"/><path d="M204.977,478.947c-1.658,3.76-3.375,8.379-.653,12.1,2.768,3.781,9.025,4.812,13.333,5.268,1.918.2,1.9-2.8,0-3-3.207-.339-6.969-1.1-9.7-2.922-3.52-2.345-1.734-6.871-.386-9.929.772-1.751-1.812-3.279-2.59-1.514Z"/><path d="M199.8,27.8l3.1,62.187a1.518,1.518,0,0,0,2.561,1.061,362.005,362.005,0,0,1,53.892-47.137c1.558-1.112.062-3.715-1.515-2.591a366.041,366.041,0,0,0-54.5,47.606l2.561,1.061L202.8,27.8c-.095-1.921-3.1-1.933-3,0Z"/><path d="M199.786,26.966c.575,3.526,1.085,9.192,6.251,7.242,1.585-.6,3.114-2.5,4.866-2.661,3.936-.366,3.586,2.15,5.009,4.2a4.508,4.508,0,0,0,3.21,2.218c3.174.361,5.4-2.348,8.857-1.4,3.569.975,4.2,4.689,7.364,5.813,1.868.664,3.653-.148,5.4-.827,5.571-2.162,9.413-.327,14.172,2.97,1.591,1.1,3.092-1.5,1.514-2.591-5.059-3.505-9.81-5.889-15.849-3.577-2.544.974-3.132,1.547-5.958-.7-.743-.59-1.268-1.5-2.055-2.109a11.274,11.274,0,0,0-6.743-2.279c-2.389-.01-5.675,2.155-7.562.53-1.287-1.109-1.372-3.355-2.914-4.462-2.09-1.5-4.49-1.051-6.715-.088-.736.319-2.51,1.775-3.123,1.79-2.924.074-2.552-3.145-2.833-4.866-.31-1.9-3.2-1.095-2.893.8Z"/><path d="M202.6,26.132c-1.055-1.845,1.085-6.819,2.806-7.576,2.638-1.16,7.614.2,10.157.678a132.387,132.387,0,0,1,19.167,5.621,190.224,190.224,0,0,1,17.825,7.173c1.693.8,4.169,1.62,5.588,2.91,2.2,2,.877,6.708-2.219,7.567a1.5,1.5,0,0,0,.8,2.893c4.6-1.275,8.084-8.867,4.074-12.307-2.577-2.21-6.441-3.563-9.5-4.915-4.7-2.08-9.5-3.959-14.337-5.7-9.355-3.369-20.824-8.154-30.978-7.007-4.777.539-8.447,7.862-5.976,12.179a1.5,1.5,0,0,0,2.59-1.514Z"/><path d="M211.935,45.894c-1.963,2.841-2.923,6.6-.751,9.618,2.151,2.99,5.989,2.838,8.753.8,2.507-1.852,4.418-5.349,2.927-8.418a5.09,5.09,0,0,0-7.048-2.366,1.5,1.5,0,0,0,1.515,2.591c1.359-.8,2.866.439,3.045,1.846.243,1.906-1.548,3.736-3.122,4.479a2.828,2.828,0,0,1-4.218-1.918c-.483-1.854.468-3.636,1.489-5.114,1.1-1.592-1.5-3.094-2.59-1.514Z"/><path d="M215.368,76.046c-1.136-3.281-1.734-6.972.954-9.677,2.475-2.491,6.143-2.263,8.842-.314,1.568,1.132,3.067-1.469,1.515-2.59a9.644,9.644,0,0,0-11.938.292c-3.966,3.4-3.854,8.5-2.266,13.086.628,1.814,3.527,1.034,2.893-.8Z"/><path d="M233.478,46.835,231.9,49.359a1.5,1.5,0,0,0,2.59,1.514l1.576-2.524a1.5,1.5,0,0,0-2.591-1.514Z"/><path d="M207.686,40.58v2.064a1.5,1.5,0,1,0,3,0V40.58a1.5,1.5,0,0,0-3,0Z"/><path d="M207.535,65.613a1.5,1.5,0,0,0,0-3,1.5,1.5,0,0,0,0,3Z"/><path d="M483.551,401.517c-3.177,7.8-1.5,16.423-10.3,20.677-6.554,3.168-12.006,5-16.467,11.164-9.61,13.274-13.363,31.413-13.456,47.5a1.5,1.5,0,0,0,3,0,90.436,90.436,0,0,1,4.4-27.793c2.571-7.831,6.127-17.173,12.7-22.594,5.16-4.257,12.776-4.652,17.172-9.949,4.218-5.081,3.462-12.345,5.851-18.21.728-1.787-2.173-2.565-2.893-.8Z"/><path d="M442.625,481.875c2.677,5.73,8.825,8.375,14.5,10.355a55.3,55.3,0,0,0,22.974,2.752c1.91-.161,1.927-3.162,0-3a53.476,53.476,0,0,1-18.938-1.63c-5.832-1.623-13.191-4.1-15.941-9.991-.816-1.747-3.4-.226-2.59,1.514Z"/><path d="M485.32,402.919a18.317,18.317,0,0,0,14.013,4.974c1.913-.146,1.929-3.147,0-3a15.329,15.329,0,0,1-11.892-4.095c-1.412-1.315-3.538.8-2.121,2.121Z"/><path d="M497.609,406.041c-1.584,6.608-6.886,12.422-5.269,19.574.806,3.564,2.826,6.839,3.958,10.308a53.775,53.775,0,0,1-17.906,59.013c-1.5,1.216.633,3.327,2.121,2.121a56.635,56.635,0,0,0,17.5-65.175c-1.866-4.711-3.922-8.376-2.131-13.571,1.362-3.948,3.632-7.373,4.615-11.473.45-1.876-2.442-2.677-2.893-.8Z"/><path d="M453.012,439.752c.839,7.414,9.607,9.772,15.63,11.807a102.819,102.819,0,0,0,29.151,5.209c1.93.072,1.927-2.928,0-3a100.4,100.4,0,0,1-21.544-3.071c-5.467-1.418-19.464-4.108-20.237-10.945-.215-1.9-3.217-1.918-3,0Z"/><path d="M445.333,463.094c4.412,6.216,11.34,8.94,18.42,11.056A99.964,99.964,0,0,0,491.94,478.2a1.5,1.5,0,0,0,0-3,97.679,97.679,0,0,1-23.769-2.938c-7.317-1.869-15.659-4.216-20.248-10.681-1.108-1.561-3.711-.064-2.59,1.514Z"/><path d="M490.76,402.422a15.643,15.643,0,0,0,1.305-8.762c-.3-2.007-.464-.544.414.264a11.448,11.448,0,0,0,2.673,1.259q2.894,1.368,5.775,2.761l-.538-2.052-4.67,7.778a1.5,1.5,0,0,0,2.591,1.514l4.67-7.778a1.513,1.513,0,0,0-.538-2.052q-3.549-1.713-7.111-3.393c-1.389-.654-3.506-2.173-5.145-1.522a2.232,2.232,0,0,0-1.268,2.624c.318,2.812.421,5.17-.748,7.845-.766,1.751,1.818,3.28,2.59,1.514Z"/><path d="M478.825,457.92c-1.847,1.825-4.431,2.11-6.787,2.927A29.234,29.234,0,0,0,465.671,464c-1.614,1.047-.112,3.646,1.514,2.59a30.322,30.322,0,0,1,8.145-3.6,12.605,12.605,0,0,0,5.616-2.947c1.375-1.359-.746-3.48-2.121-2.121Z"/><path d="M467.785,455.678c.86,3.024,2.714,5.585,4.356,8.23a41.787,41.787,0,0,0,4.827,6.9c1.329,1.407,3.447-.717,2.122-2.121a37.98,37.98,0,0,1-4.358-6.3c-1.49-2.4-3.275-4.772-4.055-7.513a1.5,1.5,0,0,0-2.892.8Z"/><path d="M303.515,117.6q.684,18.471.356,36.952c-.034,1.931,2.966,1.931,3,0q.328-18.481-.356-36.952c-.071-1.924-3.072-1.934-3,0Z"/><path d="M310.733,118.027q1.171,18.681,2.534,37.348c.139,1.914,3.141,1.929,3,0q-1.362-18.667-2.534-37.348c-.12-1.917-3.121-1.931-3,0Z"/><path d="M319.739,117.6q.209,18.387,1.342,36.742c.118,1.918,3.119,1.931,3,0q-1.132-18.354-1.342-36.742a1.5,1.5,0,0,0-3,0Z"/><path d="M327.423,116.572q1.562,19.585,2.242,39.222c.067,1.925,3.067,1.934,3,0q-.681-19.637-2.242-39.222c-.152-1.912-3.153-1.928-3,0Z"/><path d="M335.535,116.8a319.508,319.508,0,0,1,3.14,38.376c.042,1.928,3.042,1.935,3,0A326,326,0,0,0,338.428,116c-.273-1.9-3.164-1.094-2.893.8Z"/><path d="M303.711,154.766a5.663,5.663,0,0,0,5.6,5.467,7.823,7.823,0,0,0,7.195-5.094c.623-1.831-2.273-2.617-2.893-.8-.949,2.787-6.6,4.464-6.9.424-.143-1.914-3.145-1.929-3,0Z"/><path d="M313.831,155.565c.638,2.928,2.364,5.062,5.614,4.582a7.185,7.185,0,0,0,5.722-5c.6-1.84-2.3-2.628-2.893-.8a4.13,4.13,0,0,1-2.722,2.722c-1.924.577-2.474-.681-2.828-2.3-.411-1.885-3.3-1.087-2.893.8Z"/><path d="M321.775,155.347a6.461,6.461,0,0,0,5.2,4.309c2.023.355,4.381-.25,4.987-2.444a1.5,1.5,0,0,0-2.892-.8c-.185.666-1.683.293-2.115.158a3.224,3.224,0,0,1-2.289-2.023c-.579-1.835-3.476-1.051-2.893.8Z"/><path d="M330,156.807a6.5,6.5,0,0,0,7.009,4.568,7.065,7.065,0,0,0,5.8-6.63c.18-1.921-2.822-1.909-3,0-.349,3.732-5.652,5.276-6.914,1.264-.578-1.835-3.475-1.051-2.893.8Z"/><path d="M303.563,118.009a7.922,7.922,0,0,0,10.611.309c1.487-1.233-.645-3.345-2.121-2.121a4.852,4.852,0,0,1-6.369-.31c-1.393-1.337-3.517.781-2.121,2.122Z"/><path d="M311.653,118.211c.921,4.807,8.006,2.674,10.745,1.083a1.5,1.5,0,0,0-1.514-2.59c-.893.518-5.947,2.75-6.338.71-.362-1.894-3.254-1.092-2.893.8Z"/><path d="M320.185,118.233a5.162,5.162,0,0,0,10.115-1.654,1.5,1.5,0,0,0-3,0,2.176,2.176,0,0,1-4.222.857c-.646-1.805-3.546-1.027-2.893.8Z"/><path d="M328.015,116.567a5.273,5.273,0,0,0,5.53,4.854c2.8-.036,5.3-1.832,4.848-4.822-.286-1.9-3.177-1.094-2.892.8.225,1.5-4.309,1.349-4.486-.83-.155-1.911-3.156-1.927-3,0Z"/><path d="M321.016,112.54c.113-2.564,4.972-3.581,6.055-5.986a8.116,8.116,0,0,0,.474-3.554c-.042-2.557,1.025-3.583,3.2-4.623,1.741-.833.221-3.42-1.514-2.59a8.934,8.934,0,0,0-3.789,2.784c-1.146,1.706-.685,3.405-.878,5.308-.412,4.068-6.343,4-6.547,8.661-.084,1.931,2.916,1.927,3,0Z"/><path d="M331.357,93.245l-.317-2.373a1.541,1.541,0,0,0-1.5-1.5c-.723.033-1.611.667-1.5,1.5l.317,2.373a1.541,1.541,0,0,0,1.5,1.5c.724-.032,1.611-.667,1.5-1.5Z"/><path d="M334.149,94.963l3.185-1.78c1.685-.943.175-3.535-1.514-2.591l-3.185,1.781c-1.685.942-.175,3.535,1.514,2.59Z"/><path d="M333.3,98.8l5.357,1.28c1.877.448,2.678-2.444.8-2.893l-5.358-1.28c-1.876-.448-2.677,2.444-.8,2.893Z"/><path d="M305.741,116.763c.45-1.265,1.8-2.893,3.3-2.9.953,0,1.061.609,1.572,1.4l1.5,2.334c1.042,1.617,3.64.115,2.59-1.514-1.574-2.444-2.778-5.753-6.21-5.156a7.462,7.462,0,0,0-5.653,5.035c-.648,1.822,2.249,2.606,2.893.8Z"/><path d="M314.969,117.072c.168-1.112,1.8-1.989,2.895-1.809,1.134.186,1.769,1.564,2.267,2.452.945,1.684,3.537.174,2.59-1.514-1.143-2.038-2.744-4.113-5.336-3.949-2.252.142-4.949,1.638-5.309,4.022-.286,1.889,2.6,2.7,2.893.8Z"/><path d="M323.659,116.648a2.191,2.191,0,0,1,2.2-1.535,3.4,3.4,0,0,1,2.5,1.918c1.055,1.607,3.654.106,2.59-1.514-1.292-1.968-3.068-3.574-5.576-3.392a5.286,5.286,0,0,0-4.6,3.725c-.645,1.824,2.253,2.609,2.892.8Z"/><path d="M330.828,116.57a2.509,2.509,0,0,1,2.532-2.085c1.266-.076,1.607,1.035,1.951,2.05.616,1.819,3.515,1.039,2.893-.8-.866-2.554-2.375-4.56-5.352-4.194a5.422,5.422,0,0,0-5.024,5.026c-.114,1.928,2.886,1.922,3,0Z"/><path d="M311.082,112.752a3.963,3.963,0,0,1,2.438-1.352c1.182-.272,1.866.786,2.432,1.715,1,1.645,3.6.14,2.591-1.515-.973-1.594-2.5-3.449-4.555-3.309a7.175,7.175,0,0,0-5.027,2.34c-1.205,1.487.9,3.622,2.121,2.121Z"/><path d="M325.833,112.72c.262-1.3.482-2.143,1.92-2.361,1.376-.209,2.827.143,3.115,1.662.359,1.894,3.251,1.092,2.893-.8-.524-2.762-3.293-4.131-5.92-3.882-2.868.272-4.342,1.815-4.9,4.581-.381,1.885,2.51,2.692,2.892.8Z"/><path d="M318.317,109.855c-.051-.821.468-1.264,1.226-1.515.4-.134,1.944-.481,2.323-.177,1.493,1.2,3.629-.914,2.122-2.121-2.9-2.321-8.928-.324-8.671,3.813.119,1.918,3.12,1.931,3,0Z"/><path d="M324.611,110.122a1.5,1.5,0,0,0,0-3,1.5,1.5,0,0,0,0,3Z"/><path d="M324.715,114.147a1.5,1.5,0,0,0,0-3,1.5,1.5,0,0,0,0,3Z"/><path d="M304.332,131.165c10.134,4.53,23.6,2.232,34.132.251,1.895-.357,1.093-3.248-.8-2.893-9.341,1.756-22.781,4.092-31.821.052-1.748-.782-3.275,1.8-1.514,2.59Z"/><path d="M304.68,144.558c3.6,3.511,8.9,3.7,13.678,3.983a77.859,77.859,0,0,0,20.4-1.638c1.889-.39,1.089-3.283-.8-2.893a75.467,75.467,0,0,1-15.949,1.652c-4.765-.039-11.568.326-15.214-3.225-1.384-1.348-3.507.771-2.121,2.121Z"/><path d="M172.97,161.471c5.167,6.839,11.8,12.437,16.471,19.66l1.295-2.257c-8.163-.733-15.494,12.8-8.3,17.935,3.012,2.152,9.608,2.567,11.6,5.631,1.571,2.415.229,6.09-.024,8.706-.624,6.467,1.12,16.028,7.293,19.528,5.7,3.23,14.872,3.335,20.829.835,6.676-2.8,10.643-9.306,13.581-15.595,2.671-5.716,4.763-12.99.331-18.43-5.31-6.516-17.066-2.78-17.412-13.81-.208-6.638,1.6-13.579-6.448-15.585a15.231,15.231,0,0,0-16.406,6.472c-1.052,1.626,1.544,3.132,2.59,1.514a12.636,12.636,0,0,1,10.455-5.586c3.683.109,6.16,1.376,6.926,5.436a21.2,21.2,0,0,1,.011,4.477c-.162,4.9-.02,9.587,4.2,12.857,5.966,4.627,16.24,2.051,15.686,12.915-.386,7.541-6.648,18.419-13.416,21.99-4.373,2.308-9.643,2.286-14.387,1.412-5.7-1.051-8.686-4.289-10.136-9.915a26.732,26.732,0,0,1-.406-10.313,18.194,18.194,0,0,0,.154-6.117c-1.282-5.852-7.889-5.718-12.218-8.216-3.545-2.045-3.309-5.592-1.241-8.934,1.095-1.769,4.55-4.4,6.74-4.207a1.509,1.509,0,0,0,1.3-2.257c-4.678-7.241-11.3-12.813-16.47-19.66-1.15-1.521-3.756-.028-2.591,1.514Z"/><path d="M198.136,174.258c-6.309-5.94-11.9-12.8-17.745-19.194-1.306-1.428-3.423.7-2.122,2.122,5.846,6.394,11.436,13.253,17.745,19.193,1.405,1.323,3.531-.795,2.122-2.121Z"/><path d="M180.419,154.857c-.885-.911-1.206-1.23-.937-2.307.181-.723.678-1.2.62-2.028-.149-2.114-2-4.082-3.235-5.621-2.517-3.122-5.08-6.864-9.411-5.7a1.5,1.5,0,0,0,.8,2.893c1.826-.49,3.122,1.138,4.365,2.4,1.368,1.385,4.205,4.145,4.147,6.1-.033,1.132-.887,1.747-.677,3a7.079,7.079,0,0,0,2.21,3.379c1.348,1.387,3.468-.735,2.121-2.121Z"/><path d="M175.712,160.315c-.381-1.236-.929-3.061-2.3-3.554-1.025-.368-1.922.633-2.6.457-1.215-.316-3.45-4.881-4.024-5.889-2.162-3.8-3.842-7.132,1.471-9.237,1.774-.7,1-3.605-.8-2.893-2.037.807-5.995,2.717-6.586,5.079-.606,2.418,1.807,5.943,2.958,7.942,1.359,2.358,3,5.861,5.217,7.6a2.527,2.527,0,0,0,2,.686c1.609-.19,1.041-1.778,1.774.6.566,1.839,3.463,1.055,2.893-.8Z"/><path d="M173.225,142.532a10.82,10.82,0,0,0,2.226-2.621,1.5,1.5,0,1,0-2.59-1.514,8,8,0,0,1-1.758,2.014,1.513,1.513,0,0,0,0,2.121,1.533,1.533,0,0,0,2.122,0Z"/><path d="M176.1,146.229a7.925,7.925,0,0,0,2.4-1.809,1.534,1.534,0,0,0,0-2.122,1.517,1.517,0,0,0-2.122,0,5.158,5.158,0,0,1-1.792,1.341,1.514,1.514,0,0,0-.538,2.052,1.53,1.53,0,0,0,2.052.538Z"/><path d="M178.626,150.057a8.1,8.1,0,0,0,3.058-2.287,1.544,1.544,0,0,0,0-2.122,1.513,1.513,0,0,0-2.122,0,5.933,5.933,0,0,1-2.45,1.819,1.508,1.508,0,0,0-.538,2.052,1.541,1.541,0,0,0,2.052.538Z"/><path d="M163.137,145.979c-1.441.418-1.743,2.155-3.375,2.2-1.926.056-1.934,3.056,0,3a5.39,5.39,0,0,0,2.73-.787,5.163,5.163,0,0,0,1.014-.826,2.982,2.982,0,0,0,.526-.663c.1-.223.235-.131-.1-.034a1.5,1.5,0,0,0-.8-2.893Z"/><path d="M163.473,151.185a7.346,7.346,0,0,1-2.9,2.3,1.5,1.5,0,0,0,1.514,2.591,10.186,10.186,0,0,0,3.978-3.378c1.008-1.653-1.586-3.162-2.59-1.514Z"/><path d="M167.347,156.206a2.662,2.662,0,0,1-1.99,1.543,1.544,1.544,0,0,0-1.5,1.5,1.51,1.51,0,0,0,1.5,1.5,5.635,5.635,0,0,0,4.58-3.029,1.537,1.537,0,0,0-.538-2.052,1.512,1.512,0,0,0-2.052.538Z"/><path d="M166.953,149.125a1.5,1.5,0,0,0,0-3,1.5,1.5,0,0,0,0,3Z"/><path d="M169.22,152.2a1.5,1.5,0,0,0,0-3,1.5,1.5,0,0,0,0,3Z"/><path d="M171.571,155.219a1.5,1.5,0,0,0,0-3,1.5,1.5,0,0,0,0,3Z"/><path d="M170.167,146.625a1.5,1.5,0,0,0,0-3,1.5,1.5,0,0,0,0,3Z"/><path d="M172.164,149.417a1.5,1.5,0,0,0,0-3,1.5,1.5,0,0,0,0,3Z"/><path d="M174.471,152.18a1.5,1.5,0,0,0,0-3,1.5,1.5,0,0,0,0,3Z"/><path d="M206.822,184.6c-4.011-1.544-9.3,1.378-10.511,5.414a9.258,9.258,0,0,0,5.222,11.147c10.063,4.242,14.468-12.889,5.9-16.838-1.742-.8-3.268,1.782-1.514,2.59,5.309,2.447,3.313,14.186-3.207,11.46a6.142,6.142,0,0,1-3.776-6.25c.306-3.175,3.917-5.853,7.093-4.631,1.8.694,2.584-2.205.8-2.892Z"/><path d="M216.521,198.429c2.24,5.5,2.688,10.458.644,16.128-.776,2.151-3.608,5.79-1.858,8.172,2.981,4.057,10.2-.631,12.536-3.014,4.271-4.353,6.041-11.373,3.737-17.142-1.986-4.973-9.821-7.658-14.8-7.037-1.891.236-1.914,3.239,0,3a13.983,13.983,0,0,1,6.909,1.306c3.9,1.515,5.633,3.377,5.854,7.636.219,4.219-3.421,14.316-9.084,12.054q-3.119.063-1.191-2.19.422-.984.79-1.988a26.585,26.585,0,0,0,1.4-5.414c.6-4.357-.407-8.29-2.043-12.308-.719-1.765-3.622-.993-2.893.8Z"/><path d="M380.65,378.344q-1.387,16.679-3.357,33.3c-.227,1.914,2.775,1.9,3,0q1.969-16.62,3.357-33.3c.16-1.924-2.841-1.914-3,0Z"/><path d="M390.028,378.665q-1.2,17.052-2.944,34.056c-.2,1.918,2.805,1.9,3,0q1.745-17.005,2.944-34.056c.135-1.927-2.865-1.918-3,0Z"/><path d="M379.093,414.005a50.491,50.491,0,0,0,9.58.724c1.928-.042,1.935-3.042,0-3a46.3,46.3,0,0,1-8.783-.617c-1.888-.319-2.7,2.571-.8,2.893Z"/><path d="M377.543,412.22c1.236,4.7,2.268,9.454,3.5,14.156a1.52,1.52,0,0,0,2.507.662c1.576-1.291,2.269-3.453,3.027-5.289,1.058-2.564,1.982-5.169,3.269-7.632.893-1.709-1.7-3.228-2.591-1.514a58.785,58.785,0,0,0-2.487,5.622c-.841,2.123-1.518,5.2-3.339,6.691l2.507.662c-1.237-4.7-2.268-9.454-3.5-14.156a1.5,1.5,0,0,0-2.893.8Z"/><path d="M391.674,377.45a28,28,0,0,1-9.056-1.683c-1.82-.655-2.6,2.243-.8,2.892a30.528,30.528,0,0,0,9.854,1.791c1.932.034,1.932-2.966,0-3Z"/><path d="M383.152,377.594a13.021,13.021,0,0,0,1.047-3.776,11.247,11.247,0,0,0,.171-2.4q.445-1-.275-.77-1.127.075,1,.23c3.137.522,6.093,1.227,9.226.3l-1.845-1.845q-.937,5.208-1.5,10.469c-.2,1.917,2.8,1.9,3,0q.52-4.863,1.389-9.672a1.518,1.518,0,0,0-1.845-1.845c-2.306.684-4.467.271-6.774-.141-1.137-.2-2.79-.773-3.9-.339a2.192,2.192,0,0,0-1.391,2.017c-.376,2.13.007,4.188-.9,6.259-.762,1.753,1.822,3.282,2.591,1.514Z"/><path d="M328.532,388.289c9.587-6.334,15.541,6.605,18.266,13.486,1.7,4.3,3.111,8.272,7.928,9.685,2.746.806,5.748.4,8.467,1.307,4.132,1.376,5.928,5.269,8.246,8.578,2.679,3.825,5.912,6.923,10.815,6.864a1.5,1.5,0,0,0,0-3c-8.017.1-9.457-10.32-15.3-14a15.975,15.975,0,0,0-6.9-2c-2.5-.294-5.421-.238-7.381-2.165-1.574-1.546-2.2-4.093-2.983-6.068-3.457-8.716-11.269-22.814-22.673-15.278-1.6,1.06-.1,3.659,1.514,2.59Z"/><path d="M365.065,197.1c-.075,1.875-2.584,2.664-3.755,3.781a7.141,7.141,0,0,0-2.2,3.694c-1.2,5.119,3.351,9.373,2.593,14.443-.282,1.888,2.609,2.7,2.893.8a12.144,12.144,0,0,0-.4-5.765c-.686-2.256-2.868-5.6-2.274-8.068.961-3.989,5.967-4.634,6.138-8.882.078-1.931-2.922-1.927-3,0Z"/><path d="M438.869,358.565c-4.771-2.971-2.149-7.517,1.375-9.809,1.51-.982,2.925-1.7,3.856-3.339,2.385-4.2-.06-9.39.871-13.875.391-1.884-2.5-2.69-2.893-.8-.724,3.486.29,6.723.055,10.19-.349,5.177-4.9,4.8-7.424,8.2-2.967,4-1.348,9.536,2.646,12.023,1.643,1.023,3.151-1.571,1.514-2.591Z"/><path d="M105.582,457.074c-3.016-.109-5.183,2.175-5.685,5.092-.564,3.281,4.379,11.878-.515,13.161a1.5,1.5,0,0,0,.8,2.893,5.909,5.909,0,0,0,4.324-5.263c.4-2.876-4.253-13.075,1.079-12.883,1.931.069,1.928-2.931,0-3Z"/><path d="M34.607,319.6c1.21-4.139.269-7.712-1.032-11.742-1.336-4.138-3.179-10.475,1.745-13.023,1.715-.888.2-3.478-1.514-2.591-10.479,5.424.184,18.778-2.092,26.558-.543,1.857,2.351,2.65,2.893.8Z"/><path d="M240.4,375.272a57.864,57.864,0,0,0,2.473-14.38c.191-5.131-1.455-11.193,1.675-15.661,1.11-1.584-1.49-3.085-2.591-1.514-2.505,3.577-2.356,7.455-2.157,11.663a56.687,56.687,0,0,1-2.293,19.094c-.551,1.855,2.343,2.647,2.893.8Z"/><path d="M254.792,143.5c.545-2.014-.2-2.125-1.219-3.748-4.026-6.432,1.612-7.265,4.93-11.042,3.708-4.22,3.644-10.075,3.385-15.352-.095-1.921-3.095-1.933-3,0,.183,3.739.448,7.794-1.294,11.229-1.673,3.3-5.051,4.528-7.258,7.291a7.712,7.712,0,0,0-1.9,5.5c.175,1.423,3.574,4.9,3.459,5.326a1.5,1.5,0,0,0,2.892.8Z"/><path d="M356.249,44.478c-.825-3.3-3.471-4.584-6.283-6.084-2.987-1.593-4.224-3.061-4.533-6.718-.328-3.886.1-8.011.143-11.909a1.5,1.5,0,0,0-3,0c-.06,5-1.865,13.25,1.146,17.641,2.314,3.372,8.607,3.758,9.635,7.868.468,1.872,3.362,1.079,2.892-.8Z"/><path d="M147.769,26.459c-5.543,2.252-4.954,8.516-1.857,12.662,1.024,1.372,2.3,2.528,3.394,3.837,2.165,2.59,2.068,4.72,1.733,7.9-.573,5.446-1.21,10.886-1.816,16.328-.213,1.916,2.789,1.9,3,0L153.434,56.3c.382-3.436,1.528-7.5.72-10.914-.91-3.836-12.814-13.1-5.588-16.038,1.765-.717.993-3.62-.8-2.893Z"/><path d="M16.72,29.766c.254-2.927-1.3-4.874-2.807-7.244A12.671,12.671,0,0,1,12.981,10.5c.731-1.786-2.17-2.563-2.893-.8a15.491,15.491,0,0,0-.826,9.623c.856,3.564,4.773,6.813,4.458,10.438-.167,1.923,2.834,1.912,3,0Z"/><path d="M377.035,497.9a18.021,18.021,0,0,1,1.58-19.962c1.169-1.536-1.435-3.032-2.591-1.515a20.958,20.958,0,0,0-1.579,22.991c.932,1.692,3.524.18,2.59-1.514Z"/><path d="M159.066,245.906c-1.059-9.308-6.809-16.335-11.082-24.355-1.2-2.252-2.741-4.2-.993-6.483,1.184-1.544,2.61-2.325,3.572-4.164a13.016,13.016,0,0,0,.785-9.913c-.551-1.846-3.448-1.06-2.893.8a10.055,10.055,0,0,1-.809,8.157c-1.022,1.722-2.766,2.459-3.952,3.929-1.768,2.195-.709,4.163.355,6.489,3.92,8.57,10.915,15.862,12.017,25.543.216,1.9,3.218,1.918,3,0Z"/><path d="M481.429,158.225c1.781-5.5,4.755-11.626,4.766-17.5a9.813,9.813,0,0,0-1.466-5.6c-.664-.975-6.938-6.174-5.354-6.578,1.87-.476,1.078-3.37-.8-2.892-4.131,1.051-3.181,5.69-.678,7.915,2.046,1.819,4.1,1.636,5.093,4.978.549,1.845.075,4.047-.335,5.852-1,4.409-2.731,8.73-4.122,13.029-.6,1.841,2.3,2.63,2.893.8Z"/></g></svg>
