<?xml version="1.0" encoding="UTF-8" standalone="no"?><!DOCTYPE svg PUBLIC "-//W3C//DTD SVG 1.1//EN" "http://www.w3.org/Graphics/SVG/1.1/DTD/svg11.dtd"><svg width="100%" height="100%" viewBox="0 0 513 512" version="1.1" xmlns="http://www.w3.org/2000/svg" xmlns:xlink="http://www.w3.org/1999/xlink" xml:space="preserve" xmlns:serif="http://www.serif.com/" style="fill-rule:evenodd;clip-rule:evenodd;stroke-linecap:round;stroke-linejoin:round;stroke-miterlimit:1.5;"><rect id="angry" x="0.783" y="0" width="512" height="512" style="fill:none;"/><circle cx="256.783" cy="256" r="206.338" style="fill:none;stroke:#000;stroke-width:32px;"/><path d="M176.463,197.878c0,6.383 77.037,23.995 43.3,57.733c-2.294,2.294 -10.746,2.062 -14.434,2.062c-6.407,0 -17.271,1.286 -20.619,-2.062c-4.656,-4.656 -25.895,-44.209 -16.495,-53.609c1.029,-1.029 8.695,0 10.31,0" style="fill:none;stroke:#000;stroke-width:32px;"/><path d="M343.707,203.881c-16.856,0 -79.21,26.289 -61.695,43.975c26.729,26.991 67.139,-4.95 67.139,-36.646" style="fill:none;stroke:#000;stroke-width:32px;"/><path d="M165.841,140.279c21.845,0 43.277,35.381 69.2,35.381" style="fill:none;stroke:#000;stroke-width:32px;"/><path d="M278.217,175.49c39.989,0 45.142,-33.858 79.445,-33.858" style="fill:none;stroke:#000;stroke-width:32px;"/><path d="M187.638,372.49c0,-22.396 14.122,-44.426 24.824,-56.635c10.154,-11.583 91.198,-9.236 99.295,0c5.549,6.331 5.224,39.426 9.027,43.764c3.568,4.07 10.338,11.375 6.77,15.446l-4.514,0c-30.461,0 -58.402,2.078 -88.011,5.148c-21.126,2.191 -41.303,2.574 -63.188,2.574" style="fill:none;stroke:#000;stroke-width:32px;"/></svg>
