<?xml version="1.0" encoding="UTF-8" standalone="no"?><!DOCTYPE svg PUBLIC "-//W3C//DTD SVG 1.1//EN" "http://www.w3.org/Graphics/SVG/1.1/DTD/svg11.dtd"><svg width="100%" height="100%" viewBox="0 0 128 128" version="1.1" xmlns="http://www.w3.org/2000/svg" xmlns:xlink="http://www.w3.org/1999/xlink" xml:space="preserve" xmlns:serif="http://www.serif.com/" style="fill-rule:evenodd;clip-rule:evenodd;stroke-linecap:round;stroke-linejoin:round;stroke-miterlimit:1.5;"><rect id="clear" x="0" y="0" width="128" height="128" style="fill:none;"/><g id="clear1" serif:id="clear"><g><path d="M19.12,102.807c1.857,-2.792 4.516,-4.692 6.817,-7.083c6.067,-6.302 12.336,-12.514 18.291,-18.923c10.434,-11.227 20.316,-22.884 30.891,-34.005c5.912,-6.216 11.925,-12.471 18.721,-17.712c2.124,-1.638 5.678,-5.525 8.719,-5.525" style="fill:none;stroke:#000;stroke-width:16px;"/><path d="M27.182,26.894c2.458,0 3.956,1.848 5.875,3.158c6.226,4.247 10.773,9.554 16.108,14.89c12.004,12.003 23.984,23.995 35.226,36.739c7.945,9.006 14.982,18.183 24.489,25.576" style="fill:none;stroke:#000;stroke-width:16px;"/></g></g></svg>