<?xml version="1.0" encoding="UTF-8" standalone="no"?><!DOCTYPE svg PUBLIC "-//W3C//DTD SVG 1.1//EN" "http://www.w3.org/Graphics/SVG/1.1/DTD/svg11.dtd"><svg width="100%" height="100%" viewBox="0 0 512 512" version="1.1" xmlns="http://www.w3.org/2000/svg" xmlns:xlink="http://www.w3.org/1999/xlink" xml:space="preserve" xmlns:serif="http://www.serif.com/" style="fill-rule:evenodd;clip-rule:evenodd;stroke-linecap:round;stroke-linejoin:round;stroke-miterlimit:1.5;"><rect id="confused" x="0" y="0" width="512" height="512" style="fill:none;"/><g id="confused1" serif:id="confused"><path d="M127.486,406.866c-44.716,-37.016 -73.225,-92.938 -73.225,-155.465c0,-111.343 90.396,-201.739 201.739,-201.739c111.343,0 201.739,90.396 201.739,201.739c0,94.248 -64.77,173.488 -152.188,195.597" style="fill:none;stroke:#000;stroke-width:32px;"/><path d="M153.147,159.491c7.123,-9.114 8.028,-19.932 13.21,-26.563c8.67,-11.094 21.731,-9.073 32.083,-15.696c3.095,-1.98 13.027,-4.946 16.985,-2.415c6.082,3.892 13.698,6.662 17.928,12.074c0.864,1.106 2.957,8.452 4.718,8.452" style="fill:none;stroke:#000;stroke-width:32px;"/><path d="M202.288,180.434c-5.313,0 -8.566,5.103 -12.5,8.512c-3.509,3.042 -6.391,7.861 -9.821,10.834c-3.319,2.876 0.031,10.806 -2.679,13.155c-1.246,1.08 -1.869,9.987 0,11.607c3.282,2.845 6.453,5.592 9.822,8.512c2.734,2.37 16.913,-4.598 18.75,-6.19c7.112,-6.165 14.285,-21.22 14.285,-30.954c0,-4.33 0.839,-9.333 -2.678,-12.381c-4.134,-3.582 -10.083,-3.869 -16.964,-3.869" style="fill:none;stroke:#000;stroke-width:32px;"/><path d="M309.989,203.918c-11.012,0 -22.986,9.202 -28.079,19.389c-7.611,15.22 8.675,36.107 24.736,30.754c9.353,-3.118 16.714,-7.739 16.714,-18.72c0,-1.433 0.617,-4.785 0,-6.017c-2.195,-4.39 -5.528,-10.389 -8.022,-15.377c-3.653,-7.306 -17.94,-9.472 -23.4,-4.011" style="fill:none;stroke:#000;stroke-width:32px;"/><path d="M297.618,162.148c2.5,0 12.119,2.09 13.371,3.342c1.83,1.83 8.918,0.113 11.366,1.337c5.99,2.996 21.91,4.68 29.417,4.68" style="fill:none;stroke:#000;stroke-width:32px;"/><path d="M103.066,434.921c13.435,-4.183 18.746,-15.026 24.687,-27.094c9.663,-19.626 12.335,-27.02 16.764,-48.454c2.05,-9.915 0.546,-35.716 15.622,-38.141c2.422,-0.39 4.756,4.162 5.067,5.698c0.992,4.912 0.91,10.013 2.035,14.896c3.288,14.269 5.904,12.949 12.041,26.239c1.186,2.567 0.293,8.202 2.478,10.586c1.672,1.825 6.666,0.429 8.235,0.05c2.692,-0.652 21.94,-5.91 24.834,-6.065c16.189,-0.869 16.214,1.638 32.177,-1.489c20.947,-4.104 41.248,-12.483 62.906,-12.64c7.305,-0.053 14.557,1.281 21.803,2.204c2.038,0.259 4.464,-0.009 6.017,1.337c7.452,6.46 -8.683,19.921 -10.469,21.404c-18.574,15.433 -59.456,21.877 -81.965,26.597c-1.327,0.278 2.688,-0.375 4.011,-0.669c2.691,-0.598 5.33,-1.417 8.023,-2.005c7.553,-1.65 25.745,-8.48 30.754,3.342c2.178,5.141 6.819,25.005 -1.689,29.58c-5.909,3.178 -13.347,2.25 -19.538,4.836c-1.757,0.734 -4.159,1.248 -4.847,3.024c-0.414,1.069 9.411,-0.831 11.2,-0.801c5.252,0.088 12.141,-2.4 16.538,3.457c6.49,8.646 10.016,27.842 2.4,35.357c-9.038,8.918 -28.115,5.155 -38.878,6.348c-22.048,2.445 -33.024,4.555 -55.101,-1.583c-18.523,-5.15 -29.329,-3.732 -48.059,-8.066c-7.485,-1.732 -36.908,6.664 -40.408,1.148c-6.708,-10.57 -7.906,-37.927 -6.638,-49.096" style="fill:none;stroke:#000;stroke-width:32px;"/><path d="M193.991,293.242c2.771,0.109 8.523,2.287 11.031,3.543c7.597,3.803 18.359,5.233 27.118,9.617c4.028,2.017 10.298,2.02 12.716,4.387c2.992,2.929 20.861,2.685 23.839,5.6c2.105,2.062 10.989,4.598 10.878,7.426c-0.03,0.777 -0.316,0.765 0.828,0.81" style="fill:none;stroke:#000;stroke-width:32px;"/></g></svg>
