<?xml version="1.0" encoding="UTF-8" standalone="no"?><!DOCTYPE svg PUBLIC "-//W3C//DTD SVG 1.1//EN" "http://www.w3.org/Graphics/SVG/1.1/DTD/svg11.dtd"><svg width="100%" height="100%" viewBox="0 0 128 128" version="1.1" xmlns="http://www.w3.org/2000/svg" xmlns:xlink="http://www.w3.org/1999/xlink" xml:space="preserve" xmlns:serif="http://www.serif.com/" style="fill-rule:evenodd;clip-rule:evenodd;stroke-linecap:round;stroke-linejoin:round;stroke-miterlimit:1.5;"><rect id="critic" x="0" y="0" width="128" height="128" style="fill:none;"/><path d="M60.552,8.249c10.934,-0.665 23.674,4.494 29.591,13.596c0.041,0.063 1.697,10.551 1.725,10.646c1.6,5.443 3.863,-1.229 5.849,-1.643c2.407,-0.502 5.147,-0.65 7.293,4.03c2.561,5.582 -0.37,13.167 -6.154,16.514c-3.455,2 -4.07,-2.088 -4.618,0.612c-0.697,3.44 2.919,9.819 0.619,13.926c-2.678,4.782 -4.08,5.619 -9.567,7.708c-2.987,1.138 -7.214,-0.273 -10.334,0.469c-2.599,0.617 -3.204,2.313 -6.033,2.395c-3.305,0.095 -7.219,-0.333 -10.521,-0.18c-4.251,0.197 -7.132,-1.181 -11.337,-1.805c-5.063,-0.752 -13.621,-0.243 -14.701,-5.588c-0.321,-1.59 -1.008,-6.014 -0.585,-7.609c0.431,-1.623 1.079,-5.044 1.041,-6.4c-0.065,-2.344 -3.535,1.93 -5.232,0.734c-4.362,-3.073 -8.527,-15.179 -2.956,-19.319c1.875,-1.394 4.328,-1.447 6.487,-0.724c1.222,0.408 2.415,2.764 3.339,1.897c1.109,-1.041 0.065,-3.645 0,-4.699c-0.173,-2.795 -0.248,-7.29 1.1,-9.931c4.403,-8.63 15.033,-14.629 24.994,-14.629Z" style="fill:none;stroke:#000;stroke-width:4px;"/><path d="M53.584,34.066c-1.408,-0.098 -2.521,-0.424 -3.948,-0.223c-1.054,0.148 -2.549,0.228 -3.351,0.815c-1.287,0.943 -1.926,2.303 -2.541,3.85c-1.656,4.171 0.993,9.79 6.127,9.698c2.923,-0.053 6.003,-1.434 7.327,-4.044c0.629,-1.24 0.671,-2.608 0.617,-3.945c-0.074,-1.853 -0.874,-3.667 -2.2,-5.018c-0.46,-0.469 -1.284,-1.133 -2.031,-1.133Z" style="fill:none;stroke:#000;stroke-width:4px;"/><path d="M79.041,32.685c-1.414,0 -4.117,-0.416 -5.466,0.292c-3.896,2.044 -7.214,7.517 -4.892,11.671c0.777,1.389 1.693,2.06 3.104,2.821c3.755,2.025 9.334,0.204 11.013,-3.594c0.495,-1.119 1.165,-1.66 1.282,-2.882c0.102,-1.07 -0.275,-2.253 -0.751,-3.374c-1.024,-2.409 -2.32,-3.345 -4.29,-4.934Z" style="fill:none;stroke:#000;stroke-width:4px;"/><path d="M85.099,37.789c0.402,0 1.495,-1.273 1.727,-1.522c1.889,-2.029 5.828,-3.703 5.933,-3.703" style="fill:none;stroke:#000;stroke-width:4px;"/><path d="M67.914,40.671c0,-1.555 -0.396,-2.66 -1.683,-3.886c-0.741,-0.706 -1.618,-0.944 -2.914,-0.995c-1.51,-0.058 -3.378,0.8 -4.159,1.977c-0.498,0.751 -0.118,0.824 -0.402,1.634c-0.224,0.638 -0.924,1.142 -0.924,1.842" style="fill:none;stroke:#000;stroke-width:4px;"/><path d="M43.461,37.525c-2.205,0 -4.279,-1.364 -6.03,-2.422c-0.797,-0.481 -1.603,-1.385 -2.654,-1.385" style="fill:none;stroke:#000;stroke-width:4px;"/><path d="M66.193,57.431c0,-1.586 2.422,-2.29 3.721,-2.181c0.564,0.048 1.152,0.092 1.665,0.321c1.558,0.697 2.986,1.633 4.489,2.433c0.64,0.34 1.592,0.968 2.393,0.572c0.677,-0.335 1.299,-0.76 1.945,-1.145c0.687,-0.409 1.646,-0.789 1.646,-1.717" style="fill:none;stroke:#000;stroke-width:4px;"/><path d="M61.406,58.147c0,-0.432 -0.6,-0.814 -0.898,-1.002c-1.25,-0.788 -1.717,-1.192 -3.269,-1.281c-0.669,-0.038 -1.355,0.007 -2.005,0.165c-2.222,0.54 -4.423,2.216 -6.042,3.448c-0.221,0.168 -0.951,0.17 -1.197,0.143c-1.256,-0.139 -2.244,-0.656 -2.244,-2.003" style="fill:none;stroke:#000;stroke-width:4px;"/><path d="M60.969,65.561c0,0.611 0.6,1.177 0.88,1.714c0.188,0.359 0.486,0.644 0.667,1.008c0.317,0.64 0.415,1.734 0.951,2.278c0.085,0.086 0.179,-0.17 0.234,-0.281c0.072,-0.147 0.116,-0.314 0.215,-0.442c0.64,-0.835 1.322,-1.632 1.992,-2.439c0.561,-0.676 0.837,-1.252 1.015,-2.199c0.017,-0.093 -0.17,-0.069 -0.258,-0.067c-0.147,0.002 -0.294,-0.001 -0.44,0.007c-0.255,0.014 -0.508,0.057 -0.762,0.06c-1.498,0.017 -2.996,0 -4.494,0" style="fill:none;stroke:#000;stroke-width:4px;"/><path d="M69.22,28.868c0.554,0 1.046,-0.881 1.347,-1.144c0.669,-0.584 1.396,-1.105 2.08,-1.674c0.737,-0.613 1.367,-1.328 2.258,-1.76c1.194,-0.579 2.388,0.286 3.591,0.286" style="fill:none;stroke:#000;stroke-width:4px;"/><path d="M59.496,29.441c-0.385,0 -1.053,-0.559 -1.347,-0.716c-0.473,-0.251 -0.987,-0.432 -1.453,-0.695c-0.99,-0.561 -1.615,-1.239 -2.736,-1.594c-1.725,-0.546 -3.377,0.573 -5.087,0.573" style="fill:none;stroke:#000;stroke-width:4px;"/><path d="M38.809,94.71c-5.824,5.569 -5.176,8.832 -9.744,14.911c-1.31,1.743 -5.267,7.183 -4.811,7.674c0.496,0.533 2.599,1.352 3.344,1.369c2.237,0.054 4.304,0.282 6.521,0.575c1.283,0.17 4.431,1.262 5.972,0.443c1.023,-0.544 1.04,-4.301 1.331,-5.084c0.679,-1.824 0.678,-3.147 1.65,-4.846c3.153,-5.513 7.774,-9.552 13.82,-12.041c8.637,-3.555 17.912,-2.096 26.959,-3.362c5.383,-0.754 8.972,-1.764 8.723,-7.272c-0.338,-7.47 -13.209,-5.494 -17.221,-4.92c-11.288,1.615 -14.666,3.106 -25.049,7.486c-7.974,3.364 -8.577,4.88 -17.3,6.394c-9.052,1.571 -8.859,-9.796 -3.723,-13.88c2.415,-1.92 4.165,-1.386 6.277,-1.127c6.635,0.811 21.765,1.983 33.532,1.983" style="fill:none;stroke:#000;stroke-width:4px;"/><path d="M46.278,81.516c0.588,0 0.547,-5.461 0.547,-6.122" style="fill:none;stroke:#000;stroke-width:4px;"/><path d="M78.26,80.446c0,-0.955 -0.066,-4.297 0.536,-5.929" style="fill:none;stroke:#000;stroke-width:4px;"/><path d="M60.217,50.358c0.096,0 0.144,0.041 0.144,-0.072" style="fill:none;stroke:#000;stroke-width:4px;"/><path d="M66.224,50.286c-0.147,0 -0.239,-0.072 -0.36,-0.072" style="fill:none;stroke:#000;stroke-width:4px;"/></svg>