<?xml version="1.0" encoding="UTF-8" standalone="no"?><!DOCTYPE svg PUBLIC "-//W3C//DTD SVG 1.1//EN" "http://www.w3.org/Graphics/SVG/1.1/DTD/svg11.dtd"><svg width="100%" height="100%" viewBox="0 0 128 128" version="1.1" xmlns="http://www.w3.org/2000/svg" xmlns:xlink="http://www.w3.org/1999/xlink" xml:space="preserve" xmlns:serif="http://www.serif.com/" style="fill-rule:evenodd;clip-rule:evenodd;stroke-linecap:round;stroke-linejoin:round;stroke-miterlimit:1.5;"><rect id="clear" x="0" y="0" width="128" height="128" style="fill:none;"/><g id="clear1" serif:id="clear"><path d="M10.586,75.909c0,0 7.727,-25.621 7.861,-32.077c0.043,-2.066 0.767,-10.462 0.089,-12.391c-0.397,-1.133 -6.043,-15.458 -4.918,-15.879c0.931,-0.349 12.994,2.985 13.843,3.472c3.195,1.833 9.301,7.14 12.107,11.525c3.538,5.528 5.125,18.943 6.634,16.739c1.878,-2.743 10.73,-14.139 13.092,-16.464c6.128,-6.037 15.474,-12.517 23.185,-18.28c0.943,-0.704 -0.903,18.014 -1.119,22.728c-0.55,12.028 -9.322,26.348 -8.428,26.028c9.911,-3.554 20.896,-5.835 31.389,-1.887c2.336,0.878 13.897,8.471 13.986,9.273c0.073,0.661 -5.095,2.129 -6.65,2.993c-5.41,3.009 -15.852,10.646 -20.337,15.025c-4.865,4.748 -17.968,23.612 -20.408,25.456c-1.146,0.866 -8.936,-6.925 -12.509,-8.643c-11.663,-5.608 -23.087,-15.866 -34.826,-21.705c-3.819,-1.899 -9.169,-4.101 -12.991,-5.913Z" style="fill:none;stroke:#000;stroke-width:16px;"/></g></svg>


