<?xml version="1.0" encoding="UTF-8" standalone="no"?><!DOCTYPE svg PUBLIC "-//W3C//DTD SVG 1.1//EN" "http://www.w3.org/Graphics/SVG/1.1/DTD/svg11.dtd"><svg width="100%" height="100%" viewBox="0 0 513 512" version="1.1" xmlns="http://www.w3.org/2000/svg" xmlns:xlink="http://www.w3.org/1999/xlink" xml:space="preserve" xmlns:serif="http://www.serif.com/" style="fill-rule:evenodd;clip-rule:evenodd;stroke-linecap:round;stroke-linejoin:round;stroke-miterlimit:1.5;"><rect id="impressed" x="0.203" y="0" width="512" height="512" style="fill:none;"/><circle cx="256.203" cy="256" r="206.338" style="fill:none;stroke:#000;stroke-width:32px;"/><path d="M194.319,184.288c-13.576,0 -16.338,26.845 -10.822,37.877c3.845,7.69 10.675,6.617 16.232,12.174c0.739,0.738 12.643,7.649 16.233,4.058c14.71,-14.71 21.37,-71.584 -18.938,-55.461" style="fill:none;stroke:#000;stroke-width:32px;"/><path d="M306.736,182.386c-21.241,0 -37.333,37.436 -20.826,50.877c1.224,0.997 15.193,10.644 20.826,6.057c4.615,-3.758 9.999,-6.931 14.875,-10.902c7.09,-5.773 2.502,-41.572 -2.975,-46.032c-3.621,-2.949 -12.491,-2.423 -17.851,-2.423" style="fill:none;stroke:#000;stroke-width:32px;"/><path d="M137.946,178.085c15.899,-33.773 33.487,-71.281 79.763,-49.496" style="fill:none;stroke:#000;stroke-width:32px;"/><path d="M288.246,132.918c0.002,-0.501 -0.351,-1.151 0.005,-1.505c1.614,-1.602 49.934,-16.171 55.725,-10.339c3.334,3.357 11.326,3.854 15.024,7.578c8.505,8.565 9.333,24.503 16.445,31.665c0.866,0.872 -3.022,3.176 -3.026,4.505" style="fill:none;stroke:#000;stroke-width:32px;"/><path d="M229.407,301.824c0,0 -8.838,-1.005 -16.8,-5.04c-4.389,-2.225 -20.623,-9.837 -24.99,-12.104c-14.426,-7.488 -29.497,-20.477 -44.899,-14.414c-24.325,9.575 -3.822,57.72 3.927,74.752c2.291,5.037 4.833,9.988 7.834,14.637c3.03,4.693 6.466,9.142 10.2,13.298c21.707,24.163 40.679,23.373 69.8,24.517c9.279,0.365 35.303,-1.308 44.582,-1.666c4.575,-0.177 35.522,-5.016 44.427,-11.659c4.804,-3.584 35.869,-21.719 42.242,-36.348c4.066,-9.336 32.568,-78.919 9.841,-84.56c-4.113,-1.02 -45.307,13.828 -57.581,18.541c-8.187,3.144 -21.81,13.506 -29.898,16.899c-16.365,6.865 -41.485,3.147 -58.685,3.147Z" style="fill:none;stroke:#000;stroke-width:32px;"/></svg>
