<?xml version="1.0" encoding="UTF-8" standalone="no"?><!DOCTYPE svg PUBLIC "-//W3C//DTD SVG 1.1//EN" "http://www.w3.org/Graphics/SVG/1.1/DTD/svg11.dtd"><svg width="100%" height="100%" viewBox="0 0 128 128" version="1.1" xmlns="http://www.w3.org/2000/svg" xmlns:xlink="http://www.w3.org/1999/xlink" xml:space="preserve" xmlns:serif="http://www.serif.com/" style="fill-rule:evenodd;clip-rule:evenodd;stroke-linecap:round;stroke-linejoin:round;stroke-miterlimit:1.5;"><rect id="undo" x="0" y="0" width="128" height="128" style="fill:none;"/><g><path d="M21.483,53.496c16.036,0 38.218,-1.702 54.191,0c4.486,0.478 19.501,7.269 24.543,13.292c9.053,10.816 11.708,27.947 11.708,41.653" style="fill:none;stroke:#000;stroke-width:16px;"/><path d="M43.486,19.559c-4.873,4.846 -8.049,11.321 -11.881,16.958c-2.272,3.341 -5.082,6.294 -7.532,9.494c-1.374,1.794 -2.809,3.517 -4.137,5.343c-0.667,0.917 -1.477,1.674 -2.177,2.569c-0.565,0.724 -0.425,0.616 -1.123,1.312c-1.033,1.03 -0.514,1.149 0.539,2.071c1.28,1.121 1.073,1.03 2.467,2.225c1.709,1.466 1.949,1.662 3.734,3.236c2.665,2.352 2.555,2.267 5.309,4.471c3.415,2.732 6.682,5.503 9.885,8.476c3.398,3.154 6.825,6.214 10.089,9.479c0.913,0.912 2.942,2.29 2.942,3.685" style="fill:none;stroke:#000;stroke-width:16px;"/></g></svg>